<?xml version="1.0" encoding="UTF-8" standalone="no"?>
<svg
   xml:space="preserve"
   style="max-width: 100%;height: auto;"
   width="1051.25"
   height="1226.4583333333"
   viewBox="0 0 1051.25 1226.4583333333"
   version="1.1"
   id="svg343"
   sodipodi:docname="qr.svg"
   inkscape:version="1.4.2 (f4327f4, 2025-05-13)"
   xmlns:inkscape="http://www.inkscape.org/namespaces/inkscape"
   xmlns:sodipodi="http://sodipodi.sourceforge.net/DTD/sodipodi-0.dtd"
   xmlns="http://www.w3.org/2000/svg"
   xmlns:svg="http://www.w3.org/2000/svg"><defs
   id="defs343" /><sodipodi:namedview
   id="namedview343"
   pagecolor="#ffffff"
   bordercolor="#666666"
   borderopacity="1.0"
   inkscape:showpageshadow="2"
   inkscape:pageopacity="0.0"
   inkscape:pagecheckerboard="0"
   inkscape:deskcolor="#d1d1d1"
   inkscape:zoom="0.65799216"
   inkscape:cx="525.08224"
   inkscape:cy="613.22919"
   inkscape:window-width="2560"
   inkscape:window-height="1009"
   inkscape:window-x="-8"
   inkscape:window-y="-8"
   inkscape:window-maximized="1"
   inkscape:current-layer="svg343" />
<rect
   width="973.28229166667"
   height="973.28229166667"
   fill="#ffffff"
   x="38.802083333333"
   y="38.802083333333"
   id="rect1" />
<g
   fill="#000000"
   transform="scale(43.802083333333)"
   id="g1"> <path
   d="M22.7,0H1.3C0.6,0,0,0.6,0,1.3v25.3C0,27.4,0.6,28,1.3,28h21.4c0.7,0,1.3-0.6,1.3-1.3V1.3C24,0.6,23.4,0,22.7,0 z M23,22c0,0.6-0.5,1-1,1H2c-0.6,0-1-0.5-1-1V2c0-0.6,0.5-1,1-1h20c0.6,0,1,0.5,1,1V22z"
   id="path1" /></g>
<g
   fill="#000000"
   id="g330">
<g
   transform="translate(337.125,105.125) scale(4.9783333333333)"
   id="g2"><circle
     cx="3"
     cy="3"
     r="3"
     id="circle1" /></g>
<g
   transform="translate(424.125,105.125) scale(4.9783333333333)"
   id="g3"><circle
     cx="3"
     cy="3"
     r="3"
     id="circle2" /></g>
<g
   transform="translate(511.125,105.125) scale(4.9783333333333)"
   id="g4"><circle
     cx="3"
     cy="3"
     r="3"
     id="circle3" /></g>
<g
   transform="translate(569.125,105.125) scale(4.9783333333333)"
   id="g5"><circle
     cx="3"
     cy="3"
     r="3"
     id="circle4" /></g>
<g
   transform="translate(598.125,105.125) scale(4.9783333333333)"
   id="g6"><circle
     cx="3"
     cy="3"
     r="3"
     id="circle5" /></g>
<g
   transform="translate(627.125,105.125) scale(4.9783333333333)"
   id="g7"><circle
     cx="3"
     cy="3"
     r="3"
     id="circle6" /></g>
<g
   transform="translate(685.125,105.125) scale(4.9783333333333)"
   id="g8"><circle
     cx="3"
     cy="3"
     r="3"
     id="circle7" /></g>
<g
   transform="translate(337.125,134.125) scale(4.9783333333333)"
   id="g9"><circle
     cx="3"
     cy="3"
     r="3"
     id="circle8" /></g>
<g
   transform="translate(366.125,134.125) scale(4.9783333333333)"
   id="g10"><circle
     cx="3"
     cy="3"
     r="3"
     id="circle9" /></g>
<g
   transform="translate(395.125,134.125) scale(4.9783333333333)"
   id="g11"><circle
     cx="3"
     cy="3"
     r="3"
     id="circle10" /></g>
<g
   transform="translate(453.125,134.125) scale(4.9783333333333)"
   id="g12"><circle
     cx="3"
     cy="3"
     r="3"
     id="circle11" /></g>
<g
   transform="translate(511.125,134.125) scale(4.9783333333333)"
   id="g13"><circle
     cx="3"
     cy="3"
     r="3"
     id="circle12" /></g>
<g
   transform="translate(540.125,134.125) scale(4.9783333333333)"
   id="g14"><circle
     cx="3"
     cy="3"
     r="3"
     id="circle13" /></g>
<g
   transform="translate(598.125,134.125) scale(4.9783333333333)"
   id="g15"><circle
     cx="3"
     cy="3"
     r="3"
     id="circle14" /></g>
<g
   transform="translate(656.125,134.125) scale(4.9783333333333)"
   id="g16"><circle
     cx="3"
     cy="3"
     r="3"
     id="circle15" /></g>
<g
   transform="translate(337.125,163.125) scale(4.9783333333333)"
   id="g17"><circle
     cx="3"
     cy="3"
     r="3"
     id="circle16" /></g>
<g
   transform="translate(453.125,163.125) scale(4.9783333333333)"
   id="g18"><circle
     cx="3"
     cy="3"
     r="3"
     id="circle17" /></g>
<g
   transform="translate(569.125,163.125) scale(4.9783333333333)"
   id="g19"><circle
     cx="3"
     cy="3"
     r="3"
     id="circle18" /></g>
<g
   transform="translate(627.125,163.125) scale(4.9783333333333)"
   id="g20"><circle
     cx="3"
     cy="3"
     r="3"
     id="circle19" /></g>
<g
   transform="translate(656.125,163.125) scale(4.9783333333333)"
   id="g21"><circle
     cx="3"
     cy="3"
     r="3"
     id="circle20" /></g>
<g
   transform="translate(685.125,163.125) scale(4.9783333333333)"
   id="g22"><circle
     cx="3"
     cy="3"
     r="3"
     id="circle21" /></g>
<g
   transform="translate(395.125,192.125) scale(4.9783333333333)"
   id="g23"><circle
     cx="3"
     cy="3"
     r="3"
     id="circle22" /></g>
<g
   transform="translate(424.125,192.125) scale(4.9783333333333)"
   id="g24"><circle
     cx="3"
     cy="3"
     r="3"
     id="circle23" /></g>
<g
   transform="translate(482.125,192.125) scale(4.9783333333333)"
   id="g25"><circle
     cx="3"
     cy="3"
     r="3"
     id="circle24" /></g>
<g
   transform="translate(511.125,192.125) scale(4.9783333333333)"
   id="g26"><circle
     cx="3"
     cy="3"
     r="3"
     id="circle25" /></g>
<g
   transform="translate(569.125,192.125) scale(4.9783333333333)"
   id="g27"><circle
     cx="3"
     cy="3"
     r="3"
     id="circle26" /></g>
<g
   transform="translate(598.125,192.125) scale(4.9783333333333)"
   id="g28"><circle
     cx="3"
     cy="3"
     r="3"
     id="circle27" /></g>
<g
   transform="translate(656.125,192.125) scale(4.9783333333333)"
   id="g29"><circle
     cx="3"
     cy="3"
     r="3"
     id="circle28" /></g>
<g
   transform="translate(366.125,221.125) scale(4.9783333333333)"
   id="g30"><circle
     cx="3"
     cy="3"
     r="3"
     id="circle29" /></g>
<g
   transform="translate(395.125,221.125) scale(4.9783333333333)"
   id="g31"><circle
     cx="3"
     cy="3"
     r="3"
     id="circle30" /></g>
<g
   transform="translate(424.125,221.125) scale(4.9783333333333)"
   id="g32"><circle
     cx="3"
     cy="3"
     r="3"
     id="circle31" /></g>
<g
   transform="translate(453.125,221.125) scale(4.9783333333333)"
   id="g33"><circle
     cx="3"
     cy="3"
     r="3"
     id="circle32" /></g>
<g
   transform="translate(569.125,221.125) scale(4.9783333333333)"
   id="g34"><circle
     cx="3"
     cy="3"
     r="3"
     id="circle33" /></g>
<g
   transform="translate(627.125,221.125) scale(4.9783333333333)"
   id="g35"><circle
     cx="3"
     cy="3"
     r="3"
     id="circle34" /></g>
<g
   transform="translate(656.125,221.125) scale(4.9783333333333)"
   id="g36"><circle
     cx="3"
     cy="3"
     r="3"
     id="circle35" /></g>
<g
   transform="translate(337.125,250.125) scale(4.9783333333333)"
   id="g37"><circle
     cx="3"
     cy="3"
     r="3"
     id="circle36" /></g>
<g
   transform="translate(395.125,250.125) scale(4.9783333333333)"
   id="g38"><circle
     cx="3"
     cy="3"
     r="3"
     id="circle37" /></g>
<g
   transform="translate(453.125,250.125) scale(4.9783333333333)"
   id="g39"><circle
     cx="3"
     cy="3"
     r="3"
     id="circle38" /></g>
<g
   transform="translate(511.125,250.125) scale(4.9783333333333)"
   id="g40"><circle
     cx="3"
     cy="3"
     r="3"
     id="circle39" /></g>
<g
   transform="translate(540.125,250.125) scale(4.9783333333333)"
   id="g41"><circle
     cx="3"
     cy="3"
     r="3"
     id="circle40" /></g>
<g
   transform="translate(569.125,250.125) scale(4.9783333333333)"
   id="g42"><circle
     cx="3"
     cy="3"
     r="3"
     id="circle41" /></g>
<g
   transform="translate(627.125,250.125) scale(4.9783333333333)"
   id="g43"><circle
     cx="3"
     cy="3"
     r="3"
     id="circle42" /></g>
<g
   transform="translate(337.125,279.125) scale(4.9783333333333)"
   id="g44"><circle
     cx="3"
     cy="3"
     r="3"
     id="circle43" /></g>
<g
   transform="translate(395.125,279.125) scale(4.9783333333333)"
   id="g45"><circle
     cx="3"
     cy="3"
     r="3"
     id="circle44" /></g>
<g
   transform="translate(453.125,279.125) scale(4.9783333333333)"
   id="g46"><circle
     cx="3"
     cy="3"
     r="3"
     id="circle45" /></g>
<g
   transform="translate(511.125,279.125) scale(4.9783333333333)"
   id="g47"><circle
     cx="3"
     cy="3"
     r="3"
     id="circle46" /></g>
<g
   transform="translate(569.125,279.125) scale(4.9783333333333)"
   id="g48"><circle
     cx="3"
     cy="3"
     r="3"
     id="circle47" /></g>
<g
   transform="translate(627.125,279.125) scale(4.9783333333333)"
   id="g49"><circle
     cx="3"
     cy="3"
     r="3"
     id="circle48" /></g>
<g
   transform="translate(685.125,279.125) scale(4.9783333333333)"
   id="g50"><circle
     cx="3"
     cy="3"
     r="3"
     id="circle49" /></g>
<g
   transform="translate(337.125,308.125) scale(4.9783333333333)"
   id="g51"><circle
     cx="3"
     cy="3"
     r="3"
     id="circle50" /></g>
<g
   transform="translate(424.125,308.125) scale(4.9783333333333)"
   id="g52"><circle
     cx="3"
     cy="3"
     r="3"
     id="circle51" /></g>
<g
   transform="translate(453.125,308.125) scale(4.9783333333333)"
   id="g53"><circle
     cx="3"
     cy="3"
     r="3"
     id="circle52" /></g>
<g
   transform="translate(540.125,308.125) scale(4.9783333333333)"
   id="g54"><circle
     cx="3"
     cy="3"
     r="3"
     id="circle53" /></g>
<g
   transform="translate(569.125,308.125) scale(4.9783333333333)"
   id="g55"><circle
     cx="3"
     cy="3"
     r="3"
     id="circle54" /></g>
<g
   transform="translate(656.125,308.125) scale(4.9783333333333)"
   id="g56"><circle
     cx="3"
     cy="3"
     r="3"
     id="circle55" /></g>
<g
   transform="translate(163.125,337.125) scale(4.9783333333333)"
   id="g57"><circle
     cx="3"
     cy="3"
     r="3"
     id="circle56" /></g>
<g
   transform="translate(192.125,337.125) scale(4.9783333333333)"
   id="g58"><circle
     cx="3"
     cy="3"
     r="3"
     id="circle57" /></g>
<g
   transform="translate(221.125,337.125) scale(4.9783333333333)"
   id="g59"><circle
     cx="3"
     cy="3"
     r="3"
     id="circle58" /></g>
<g
   transform="translate(279.125,337.125) scale(4.9783333333333)"
   id="g60"><circle
     cx="3"
     cy="3"
     r="3"
     id="circle59" /></g>
<g
   transform="translate(337.125,337.125) scale(4.9783333333333)"
   id="g61"><circle
     cx="3"
     cy="3"
     r="3"
     id="circle60" /></g>
<g
   transform="translate(395.125,337.125) scale(4.9783333333333)"
   id="g62"><circle
     cx="3"
     cy="3"
     r="3"
     id="circle61" /></g>
<g
   transform="translate(511.125,337.125) scale(4.9783333333333)"
   id="g63"><circle
     cx="3"
     cy="3"
     r="3"
     id="circle62" /></g>
<g
   transform="translate(540.125,337.125) scale(4.9783333333333)"
   id="g64"><circle
     cx="3"
     cy="3"
     r="3"
     id="circle63" /></g>
<g
   transform="translate(569.125,337.125) scale(4.9783333333333)"
   id="g65"><circle
     cx="3"
     cy="3"
     r="3"
     id="circle64" /></g>
<g
   transform="translate(627.125,337.125) scale(4.9783333333333)"
   id="g66"><circle
     cx="3"
     cy="3"
     r="3"
     id="circle65" /></g>
<g
   transform="translate(714.125,337.125) scale(4.9783333333333)"
   id="g67"><circle
     cx="3"
     cy="3"
     r="3"
     id="circle66" /></g>
<g
   transform="translate(743.125,337.125) scale(4.9783333333333)"
   id="g68"><circle
     cx="3"
     cy="3"
     r="3"
     id="circle67" /></g>
<g
   transform="translate(772.125,337.125) scale(4.9783333333333)"
   id="g69"><circle
     cx="3"
     cy="3"
     r="3"
     id="circle68" /></g>
<g
   transform="translate(859.125,337.125) scale(4.9783333333333)"
   id="g70"><circle
     cx="3"
     cy="3"
     r="3"
     id="circle69" /></g>
<g
   transform="translate(888.125,337.125) scale(4.9783333333333)"
   id="g71"><circle
     cx="3"
     cy="3"
     r="3"
     id="circle70" /></g>
<g
   transform="translate(917.125,337.125) scale(4.9783333333333)"
   id="g72"><circle
     cx="3"
     cy="3"
     r="3"
     id="circle71" /></g>
<g
   transform="translate(134.125,366.125) scale(4.9783333333333)"
   id="g73"><circle
     cx="3"
     cy="3"
     r="3"
     id="circle72" /></g>
<g
   transform="translate(308.125,366.125) scale(4.9783333333333)"
   id="g74"><circle
     cx="3"
     cy="3"
     r="3"
     id="circle73" /></g>
<g
   transform="translate(337.125,366.125) scale(4.9783333333333)"
   id="g75"><circle
     cx="3"
     cy="3"
     r="3"
     id="circle74" /></g>
<g
   transform="translate(366.125,366.125) scale(4.9783333333333)"
   id="g76"><circle
     cx="3"
     cy="3"
     r="3"
     id="circle75" /></g>
<g
   transform="translate(424.125,366.125) scale(4.9783333333333)"
   id="g77"><circle
     cx="3"
     cy="3"
     r="3"
     id="circle76" /></g>
<g
   transform="translate(569.125,366.125) scale(4.9783333333333)"
   id="g78"><circle
     cx="3"
     cy="3"
     r="3"
     id="circle77" /></g>
<g
   transform="translate(598.125,366.125) scale(4.9783333333333)"
   id="g79"><circle
     cx="3"
     cy="3"
     r="3"
     id="circle78" /></g>
<g
   transform="translate(743.125,366.125) scale(4.9783333333333)"
   id="g80"><circle
     cx="3"
     cy="3"
     r="3"
     id="circle79" /></g>
<g
   transform="translate(772.125,366.125) scale(4.9783333333333)"
   id="g81"><circle
     cx="3"
     cy="3"
     r="3"
     id="circle80" /></g>
<g
   transform="translate(801.125,366.125) scale(4.9783333333333)"
   id="g82"><circle
     cx="3"
     cy="3"
     r="3"
     id="circle81" /></g>
<g
   transform="translate(830.125,366.125) scale(4.9783333333333)"
   id="g83"><circle
     cx="3"
     cy="3"
     r="3"
     id="circle82" /></g>
<g
   transform="translate(859.125,366.125) scale(4.9783333333333)"
   id="g84"><circle
     cx="3"
     cy="3"
     r="3"
     id="circle83" /></g>
<g
   transform="translate(917.125,366.125) scale(4.9783333333333)"
   id="g85"><circle
     cx="3"
     cy="3"
     r="3"
     id="circle84" /></g>
<g
   transform="translate(134.125,395.125) scale(4.9783333333333)"
   id="g86"><circle
     cx="3"
     cy="3"
     r="3"
     id="circle85" /></g>
<g
   transform="translate(163.125,395.125) scale(4.9783333333333)"
   id="g87"><circle
     cx="3"
     cy="3"
     r="3"
     id="circle86" /></g>
<g
   transform="translate(192.125,395.125) scale(4.9783333333333)"
   id="g88"><circle
     cx="3"
     cy="3"
     r="3"
     id="circle87" /></g>
<g
   transform="translate(221.125,395.125) scale(4.9783333333333)"
   id="g89"><circle
     cx="3"
     cy="3"
     r="3"
     id="circle88" /></g>
<g
   transform="translate(250.125,395.125) scale(4.9783333333333)"
   id="g90"><circle
     cx="3"
     cy="3"
     r="3"
     id="circle89" /></g>
<g
   transform="translate(279.125,395.125) scale(4.9783333333333)"
   id="g91"><circle
     cx="3"
     cy="3"
     r="3"
     id="circle90" /></g>
<g
   transform="translate(395.125,395.125) scale(4.9783333333333)"
   id="g92"><circle
     cx="3"
     cy="3"
     r="3"
     id="circle91" /></g>
<g
   transform="translate(482.125,395.125) scale(4.9783333333333)"
   id="g93"><circle
     cx="3"
     cy="3"
     r="3"
     id="circle92" /></g>
<g
   transform="translate(511.125,395.125) scale(4.9783333333333)"
   id="g94"><circle
     cx="3"
     cy="3"
     r="3"
     id="circle93" /></g>
<g
   transform="translate(540.125,395.125) scale(4.9783333333333)"
   id="g95"><circle
     cx="3"
     cy="3"
     r="3"
     id="circle94" /></g>
<g
   transform="translate(714.125,395.125) scale(4.9783333333333)"
   id="g96"><circle
     cx="3"
     cy="3"
     r="3"
     id="circle95" /></g>
<g
   transform="translate(743.125,395.125) scale(4.9783333333333)"
   id="g97"><circle
     cx="3"
     cy="3"
     r="3"
     id="circle96" /></g>
<g
   transform="translate(772.125,395.125) scale(4.9783333333333)"
   id="g98"><circle
     cx="3"
     cy="3"
     r="3"
     id="circle97" /></g>
<g
   transform="translate(801.125,395.125) scale(4.9783333333333)"
   id="g99"><circle
     cx="3"
     cy="3"
     r="3"
     id="circle98" /></g>
<g
   transform="translate(859.125,395.125) scale(4.9783333333333)"
   id="g100"><circle
     cx="3"
     cy="3"
     r="3"
     id="circle99" /></g>
<g
   transform="translate(308.125,424.125) scale(4.9783333333333)"
   id="g101"><circle
     cx="3"
     cy="3"
     r="3"
     id="circle100" /></g>
<g
   transform="translate(337.125,424.125) scale(4.9783333333333)"
   id="g102"><circle
     cx="3"
     cy="3"
     r="3"
     id="circle101" /></g>
<g
   transform="translate(366.125,424.125) scale(4.9783333333333)"
   id="g103"><circle
     cx="3"
     cy="3"
     r="3"
     id="circle102" /></g>
<g
   transform="translate(395.125,424.125) scale(4.9783333333333)"
   id="g104"><circle
     cx="3"
     cy="3"
     r="3"
     id="circle103" /></g>
<g
   transform="translate(540.125,424.125) scale(4.9783333333333)"
   id="g105"><circle
     cx="3"
     cy="3"
     r="3"
     id="circle104" /></g>
<g
   transform="translate(598.125,424.125) scale(4.9783333333333)"
   id="g106"><circle
     cx="3"
     cy="3"
     r="3"
     id="circle105" /></g>
<g
   transform="translate(714.125,424.125) scale(4.9783333333333)"
   id="g107"><circle
     cx="3"
     cy="3"
     r="3"
     id="circle106" /></g>
<g
   transform="translate(743.125,424.125) scale(4.9783333333333)"
   id="g108"><circle
     cx="3"
     cy="3"
     r="3"
     id="circle107" /></g>
<g
   transform="translate(772.125,424.125) scale(4.9783333333333)"
   id="g109"><circle
     cx="3"
     cy="3"
     r="3"
     id="circle108" /></g>
<g
   transform="translate(801.125,424.125) scale(4.9783333333333)"
   id="g110"><circle
     cx="3"
     cy="3"
     r="3"
     id="circle109" /></g>
<g
   transform="translate(830.125,424.125) scale(4.9783333333333)"
   id="g111"><circle
     cx="3"
     cy="3"
     r="3"
     id="circle110" /></g>
<g
   transform="translate(888.125,424.125) scale(4.9783333333333)"
   id="g112"><circle
     cx="3"
     cy="3"
     r="3"
     id="circle111" /></g>
<g
   transform="translate(134.125,453.125) scale(4.9783333333333)"
   id="g113"><circle
     cx="3"
     cy="3"
     r="3"
     id="circle112" /></g>
<g
   transform="translate(192.125,453.125) scale(4.9783333333333)"
   id="g114"><circle
     cx="3"
     cy="3"
     r="3"
     id="circle113" /></g>
<g
   transform="translate(221.125,453.125) scale(4.9783333333333)"
   id="g115"><circle
     cx="3"
     cy="3"
     r="3"
     id="circle114" /></g>
<g
   transform="translate(250.125,453.125) scale(4.9783333333333)"
   id="g116"><circle
     cx="3"
     cy="3"
     r="3"
     id="circle115" /></g>
<g
   transform="translate(279.125,453.125) scale(4.9783333333333)"
   id="g117"><circle
     cx="3"
     cy="3"
     r="3"
     id="circle116" /></g>
<g
   transform="translate(308.125,453.125) scale(4.9783333333333)"
   id="g118"><circle
     cx="3"
     cy="3"
     r="3"
     id="circle117" /></g>
<g
   transform="translate(337.125,453.125) scale(4.9783333333333)"
   id="g119"><circle
     cx="3"
     cy="3"
     r="3"
     id="circle118" /></g>
<g
   transform="translate(424.125,453.125) scale(4.9783333333333)"
   id="g120"><circle
     cx="3"
     cy="3"
     r="3"
     id="circle119" /></g>
<g
   transform="translate(482.125,453.125) scale(4.9783333333333)"
   id="g121"><circle
     cx="3"
     cy="3"
     r="3"
     id="circle120" /></g>
<g
   transform="translate(511.125,453.125) scale(4.9783333333333)"
   id="g122"><circle
     cx="3"
     cy="3"
     r="3"
     id="circle121" /></g>
<g
   transform="translate(569.125,453.125) scale(4.9783333333333)"
   id="g123"><circle
     cx="3"
     cy="3"
     r="3"
     id="circle122" /></g>
<g
   transform="translate(656.125,453.125) scale(4.9783333333333)"
   id="g124"><circle
     cx="3"
     cy="3"
     r="3"
     id="circle123" /></g>
<g
   transform="translate(685.125,453.125) scale(4.9783333333333)"
   id="g125"><circle
     cx="3"
     cy="3"
     r="3"
     id="circle124" /></g>
<g
   transform="translate(714.125,453.125) scale(4.9783333333333)"
   id="g126"><circle
     cx="3"
     cy="3"
     r="3"
     id="circle125" /></g>
<g
   transform="translate(772.125,453.125) scale(4.9783333333333)"
   id="g127"><circle
     cx="3"
     cy="3"
     r="3"
     id="circle126" /></g>
<g
   transform="translate(859.125,453.125) scale(4.9783333333333)"
   id="g128"><circle
     cx="3"
     cy="3"
     r="3"
     id="circle127" /></g>
<g
   transform="translate(888.125,453.125) scale(4.9783333333333)"
   id="g129"><circle
     cx="3"
     cy="3"
     r="3"
     id="circle128" /></g>
<g
   transform="translate(917.125,453.125) scale(4.9783333333333)"
   id="g130"><circle
     cx="3"
     cy="3"
     r="3"
     id="circle129" /></g>
<g
   transform="translate(163.125,482.125) scale(4.9783333333333)"
   id="g131"><circle
     cx="3"
     cy="3"
     r="3"
     id="circle130" /></g>
<g
   transform="translate(192.125,482.125) scale(4.9783333333333)"
   id="g132"><circle
     cx="3"
     cy="3"
     r="3"
     id="circle131" /></g>
<g
   transform="translate(221.125,482.125) scale(4.9783333333333)"
   id="g133"><circle
     cx="3"
     cy="3"
     r="3"
     id="circle132" /></g>
<g
   transform="translate(250.125,482.125) scale(4.9783333333333)"
   id="g134"><circle
     cx="3"
     cy="3"
     r="3"
     id="circle133" /></g>
<g
   transform="translate(308.125,482.125) scale(4.9783333333333)"
   id="g135"><circle
     cx="3"
     cy="3"
     r="3"
     id="circle134" /></g>
<g
   transform="translate(366.125,482.125) scale(4.9783333333333)"
   id="g136"><circle
     cx="3"
     cy="3"
     r="3"
     id="circle135" /></g>
<g
   transform="translate(395.125,482.125) scale(4.9783333333333)"
   id="g137"><circle
     cx="3"
     cy="3"
     r="3"
     id="circle136" /></g>
<g
   transform="translate(453.125,482.125) scale(4.9783333333333)"
   id="g138"><circle
     cx="3"
     cy="3"
     r="3"
     id="circle137" /></g>
<g
   transform="translate(540.125,482.125) scale(4.9783333333333)"
   id="g139"><circle
     cx="3"
     cy="3"
     r="3"
     id="circle138" /></g>
<g
   transform="translate(627.125,482.125) scale(4.9783333333333)"
   id="g140"><circle
     cx="3"
     cy="3"
     r="3"
     id="circle139" /></g>
<g
   transform="translate(656.125,482.125) scale(4.9783333333333)"
   id="g141"><circle
     cx="3"
     cy="3"
     r="3"
     id="circle140" /></g>
<g
   transform="translate(685.125,482.125) scale(4.9783333333333)"
   id="g142"><circle
     cx="3"
     cy="3"
     r="3"
     id="circle141" /></g>
<g
   transform="translate(714.125,482.125) scale(4.9783333333333)"
   id="g143"><circle
     cx="3"
     cy="3"
     r="3"
     id="circle142" /></g>
<g
   transform="translate(743.125,482.125) scale(4.9783333333333)"
   id="g144"><circle
     cx="3"
     cy="3"
     r="3"
     id="circle143" /></g>
<g
   transform="translate(801.125,482.125) scale(4.9783333333333)"
   id="g145"><circle
     cx="3"
     cy="3"
     r="3"
     id="circle144" /></g>
<g
   transform="translate(830.125,482.125) scale(4.9783333333333)"
   id="g146"><circle
     cx="3"
     cy="3"
     r="3"
     id="circle145" /></g>
<g
   transform="translate(888.125,482.125) scale(4.9783333333333)"
   id="g147"><circle
     cx="3"
     cy="3"
     r="3"
     id="circle146" /></g>
<g
   transform="translate(917.125,482.125) scale(4.9783333333333)"
   id="g148"><circle
     cx="3"
     cy="3"
     r="3"
     id="circle147" /></g>
<g
   transform="translate(134.125,511.125) scale(4.9783333333333)"
   id="g149"><circle
     cx="3"
     cy="3"
     r="3"
     id="circle148" /></g>
<g
   transform="translate(221.125,511.125) scale(4.9783333333333)"
   id="g150"><circle
     cx="3"
     cy="3"
     r="3"
     id="circle149" /></g>
<g
   transform="translate(279.125,511.125) scale(4.9783333333333)"
   id="g151"><circle
     cx="3"
     cy="3"
     r="3"
     id="circle150" /></g>
<g
   transform="translate(337.125,511.125) scale(4.9783333333333)"
   id="g152"><circle
     cx="3"
     cy="3"
     r="3"
     id="circle151" /></g>
<g
   transform="translate(366.125,511.125) scale(4.9783333333333)"
   id="g153"><circle
     cx="3"
     cy="3"
     r="3"
     id="circle152" /></g>
<g
   transform="translate(395.125,511.125) scale(4.9783333333333)"
   id="g154"><circle
     cx="3"
     cy="3"
     r="3"
     id="circle153" /></g>
<g
   transform="translate(453.125,511.125) scale(4.9783333333333)"
   id="g155"><circle
     cx="3"
     cy="3"
     r="3"
     id="circle154" /></g>
<g
   transform="translate(482.125,511.125) scale(4.9783333333333)"
   id="g156"><circle
     cx="3"
     cy="3"
     r="3"
     id="circle155" /></g>
<g
   transform="translate(511.125,511.125) scale(4.9783333333333)"
   id="g157"><circle
     cx="3"
     cy="3"
     r="3"
     id="circle156" /></g>
<g
   transform="translate(685.125,511.125) scale(4.9783333333333)"
   id="g158"><circle
     cx="3"
     cy="3"
     r="3"
     id="circle157" /></g>
<g
   transform="translate(772.125,511.125) scale(4.9783333333333)"
   id="g159"><circle
     cx="3"
     cy="3"
     r="3"
     id="circle158" /></g>
<g
   transform="translate(105.125,540.125) scale(4.9783333333333)"
   id="g160"><circle
     cx="3"
     cy="3"
     r="3"
     id="circle159" /></g>
<g
   transform="translate(163.125,540.125) scale(4.9783333333333)"
   id="g161"><circle
     cx="3"
     cy="3"
     r="3"
     id="circle160" /></g>
<g
   transform="translate(221.125,540.125) scale(4.9783333333333)"
   id="g162"><circle
     cx="3"
     cy="3"
     r="3"
     id="circle161" /></g>
<g
   transform="translate(250.125,540.125) scale(4.9783333333333)"
   id="g163"><circle
     cx="3"
     cy="3"
     r="3"
     id="circle162" /></g>
<g
   transform="translate(308.125,540.125) scale(4.9783333333333)"
   id="g164"><circle
     cx="3"
     cy="3"
     r="3"
     id="circle163" /></g>
<g
   transform="translate(337.125,540.125) scale(4.9783333333333)"
   id="g165"><circle
     cx="3"
     cy="3"
     r="3"
     id="circle164" /></g>
<g
   transform="translate(453.125,540.125) scale(4.9783333333333)"
   id="g166"><circle
     cx="3"
     cy="3"
     r="3"
     id="circle165" /></g>
<g
   transform="translate(540.125,540.125) scale(4.9783333333333)"
   id="g167"><circle
     cx="3"
     cy="3"
     r="3"
     id="circle166" /></g>
<g
   transform="translate(714.125,540.125) scale(4.9783333333333)"
   id="g168"><circle
     cx="3"
     cy="3"
     r="3"
     id="circle167" /></g>
<g
   transform="translate(801.125,540.125) scale(4.9783333333333)"
   id="g169"><circle
     cx="3"
     cy="3"
     r="3"
     id="circle168" /></g>
<g
   transform="translate(830.125,540.125) scale(4.9783333333333)"
   id="g170"><circle
     cx="3"
     cy="3"
     r="3"
     id="circle169" /></g>
<g
   transform="translate(105.125,569.125) scale(4.9783333333333)"
   id="g171"><circle
     cx="3"
     cy="3"
     r="3"
     id="circle170" /></g>
<g
   transform="translate(163.125,569.125) scale(4.9783333333333)"
   id="g172"><circle
     cx="3"
     cy="3"
     r="3"
     id="circle171" /></g>
<g
   transform="translate(250.125,569.125) scale(4.9783333333333)"
   id="g173"><circle
     cx="3"
     cy="3"
     r="3"
     id="circle172" /></g>
<g
   transform="translate(279.125,569.125) scale(4.9783333333333)"
   id="g174"><circle
     cx="3"
     cy="3"
     r="3"
     id="circle173" /></g>
<g
   transform="translate(308.125,569.125) scale(4.9783333333333)"
   id="g175"><circle
     cx="3"
     cy="3"
     r="3"
     id="circle174" /></g>
<g
   transform="translate(366.125,569.125) scale(4.9783333333333)"
   id="g176"><circle
     cx="3"
     cy="3"
     r="3"
     id="circle175" /></g>
<g
   transform="translate(424.125,569.125) scale(4.9783333333333)"
   id="g177"><circle
     cx="3"
     cy="3"
     r="3"
     id="circle176" /></g>
<g
   transform="translate(598.125,569.125) scale(4.9783333333333)"
   id="g178"><circle
     cx="3"
     cy="3"
     r="3"
     id="circle177" /></g>
<g
   transform="translate(627.125,569.125) scale(4.9783333333333)"
   id="g179"><circle
     cx="3"
     cy="3"
     r="3"
     id="circle178" /></g>
<g
   transform="translate(801.125,569.125) scale(4.9783333333333)"
   id="g180"><circle
     cx="3"
     cy="3"
     r="3"
     id="circle179" /></g>
<g
   transform="translate(830.125,569.125) scale(4.9783333333333)"
   id="g181"><circle
     cx="3"
     cy="3"
     r="3"
     id="circle180" /></g>
<g
   transform="translate(859.125,569.125) scale(4.9783333333333)"
   id="g182"><circle
     cx="3"
     cy="3"
     r="3"
     id="circle181" /></g>
<g
   transform="translate(888.125,569.125) scale(4.9783333333333)"
   id="g183"><circle
     cx="3"
     cy="3"
     r="3"
     id="circle182" /></g>
<g
   transform="translate(917.125,569.125) scale(4.9783333333333)"
   id="g184"><circle
     cx="3"
     cy="3"
     r="3"
     id="circle183" /></g>
<g
   transform="translate(105.125,598.125) scale(4.9783333333333)"
   id="g185"><circle
     cx="3"
     cy="3"
     r="3"
     id="circle184" /></g>
<g
   transform="translate(134.125,598.125) scale(4.9783333333333)"
   id="g186"><circle
     cx="3"
     cy="3"
     r="3"
     id="circle185" /></g>
<g
   transform="translate(192.125,598.125) scale(4.9783333333333)"
   id="g187"><circle
     cx="3"
     cy="3"
     r="3"
     id="circle186" /></g>
<g
   transform="translate(221.125,598.125) scale(4.9783333333333)"
   id="g188"><circle
     cx="3"
     cy="3"
     r="3"
     id="circle187" /></g>
<g
   transform="translate(337.125,598.125) scale(4.9783333333333)"
   id="g189"><circle
     cx="3"
     cy="3"
     r="3"
     id="circle188" /></g>
<g
   transform="translate(453.125,598.125) scale(4.9783333333333)"
   id="g190"><circle
     cx="3"
     cy="3"
     r="3"
     id="circle189" /></g>
<g
   transform="translate(656.125,598.125) scale(4.9783333333333)"
   id="g191"><circle
     cx="3"
     cy="3"
     r="3"
     id="circle190" /></g>
<g
   transform="translate(685.125,598.125) scale(4.9783333333333)"
   id="g192"><circle
     cx="3"
     cy="3"
     r="3"
     id="circle191" /></g>
<g
   transform="translate(772.125,598.125) scale(4.9783333333333)"
   id="g193"><circle
     cx="3"
     cy="3"
     r="3"
     id="circle192" /></g>
<g
   transform="translate(801.125,598.125) scale(4.9783333333333)"
   id="g194"><circle
     cx="3"
     cy="3"
     r="3"
     id="circle193" /></g>
<g
   transform="translate(859.125,598.125) scale(4.9783333333333)"
   id="g195"><circle
     cx="3"
     cy="3"
     r="3"
     id="circle194" /></g>
<g
   transform="translate(888.125,598.125) scale(4.9783333333333)"
   id="g196"><circle
     cx="3"
     cy="3"
     r="3"
     id="circle195" /></g>
<g
   transform="translate(917.125,598.125) scale(4.9783333333333)"
   id="g197"><circle
     cx="3"
     cy="3"
     r="3"
     id="circle196" /></g>
<g
   transform="translate(105.125,627.125) scale(4.9783333333333)"
   id="g198"><circle
     cx="3"
     cy="3"
     r="3"
     id="circle197" /></g>
<g
   transform="translate(192.125,627.125) scale(4.9783333333333)"
   id="g199"><circle
     cx="3"
     cy="3"
     r="3"
     id="circle198" /></g>
<g
   transform="translate(221.125,627.125) scale(4.9783333333333)"
   id="g200"><circle
     cx="3"
     cy="3"
     r="3"
     id="circle199" /></g>
<g
   transform="translate(250.125,627.125) scale(4.9783333333333)"
   id="g201"><circle
     cx="3"
     cy="3"
     r="3"
     id="circle200" /></g>
<g
   transform="translate(279.125,627.125) scale(4.9783333333333)"
   id="g202"><circle
     cx="3"
     cy="3"
     r="3"
     id="circle201" /></g>
<g
   transform="translate(308.125,627.125) scale(4.9783333333333)"
   id="g203"><circle
     cx="3"
     cy="3"
     r="3"
     id="circle202" /></g>
<g
   transform="translate(366.125,627.125) scale(4.9783333333333)"
   id="g204"><circle
     cx="3"
     cy="3"
     r="3"
     id="circle203" /></g>
<g
   transform="translate(424.125,627.125) scale(4.9783333333333)"
   id="g205"><circle
     cx="3"
     cy="3"
     r="3"
     id="circle204" /></g>
<g
   transform="translate(482.125,627.125) scale(4.9783333333333)"
   id="g206"><circle
     cx="3"
     cy="3"
     r="3"
     id="circle205" /></g>
<g
   transform="translate(540.125,627.125) scale(4.9783333333333)"
   id="g207"><circle
     cx="3"
     cy="3"
     r="3"
     id="circle206" /></g>
<g
   transform="translate(627.125,627.125) scale(4.9783333333333)"
   id="g208"><circle
     cx="3"
     cy="3"
     r="3"
     id="circle207" /></g>
<g
   transform="translate(743.125,627.125) scale(4.9783333333333)"
   id="g209"><circle
     cx="3"
     cy="3"
     r="3"
     id="circle208" /></g>
<g
   transform="translate(801.125,627.125) scale(4.9783333333333)"
   id="g210"><circle
     cx="3"
     cy="3"
     r="3"
     id="circle209" /></g>
<g
   transform="translate(830.125,627.125) scale(4.9783333333333)"
   id="g211"><circle
     cx="3"
     cy="3"
     r="3"
     id="circle210" /></g>
<g
   transform="translate(859.125,627.125) scale(4.9783333333333)"
   id="g212"><circle
     cx="3"
     cy="3"
     r="3"
     id="circle211" /></g>
<g
   transform="translate(105.125,656.125) scale(4.9783333333333)"
   id="g213"><circle
     cx="3"
     cy="3"
     r="3"
     id="circle212" /></g>
<g
   transform="translate(163.125,656.125) scale(4.9783333333333)"
   id="g214"><circle
     cx="3"
     cy="3"
     r="3"
     id="circle213" /></g>
<g
   transform="translate(221.125,656.125) scale(4.9783333333333)"
   id="g215"><circle
     cx="3"
     cy="3"
     r="3"
     id="circle214" /></g>
<g
   transform="translate(337.125,656.125) scale(4.9783333333333)"
   id="g216"><circle
     cx="3"
     cy="3"
     r="3"
     id="circle215" /></g>
<g
   transform="translate(395.125,656.125) scale(4.9783333333333)"
   id="g217"><circle
     cx="3"
     cy="3"
     r="3"
     id="circle216" /></g>
<g
   transform="translate(424.125,656.125) scale(4.9783333333333)"
   id="g218"><circle
     cx="3"
     cy="3"
     r="3"
     id="circle217" /></g>
<g
   transform="translate(482.125,656.125) scale(4.9783333333333)"
   id="g219"><circle
     cx="3"
     cy="3"
     r="3"
     id="circle218" /></g>
<g
   transform="translate(511.125,656.125) scale(4.9783333333333)"
   id="g220"><circle
     cx="3"
     cy="3"
     r="3"
     id="circle219" /></g>
<g
   transform="translate(540.125,656.125) scale(4.9783333333333)"
   id="g221"><circle
     cx="3"
     cy="3"
     r="3"
     id="circle220" /></g>
<g
   transform="translate(743.125,656.125) scale(4.9783333333333)"
   id="g222"><circle
     cx="3"
     cy="3"
     r="3"
     id="circle221" /></g>
<g
   transform="translate(801.125,656.125) scale(4.9783333333333)"
   id="g223"><circle
     cx="3"
     cy="3"
     r="3"
     id="circle222" /></g>
<g
   transform="translate(888.125,656.125) scale(4.9783333333333)"
   id="g224"><circle
     cx="3"
     cy="3"
     r="3"
     id="circle223" /></g>
<g
   transform="translate(917.125,656.125) scale(4.9783333333333)"
   id="g225"><circle
     cx="3"
     cy="3"
     r="3"
     id="circle224" /></g>
<g
   transform="translate(105.125,685.125) scale(4.9783333333333)"
   id="g226"><circle
     cx="3"
     cy="3"
     r="3"
     id="circle225" /></g>
<g
   transform="translate(163.125,685.125) scale(4.9783333333333)"
   id="g227"><circle
     cx="3"
     cy="3"
     r="3"
     id="circle226" /></g>
<g
   transform="translate(192.125,685.125) scale(4.9783333333333)"
   id="g228"><circle
     cx="3"
     cy="3"
     r="3"
     id="circle227" /></g>
<g
   transform="translate(250.125,685.125) scale(4.9783333333333)"
   id="g229"><circle
     cx="3"
     cy="3"
     r="3"
     id="circle228" /></g>
<g
   transform="translate(279.125,685.125) scale(4.9783333333333)"
   id="g230"><circle
     cx="3"
     cy="3"
     r="3"
     id="circle229" /></g>
<g
   transform="translate(308.125,685.125) scale(4.9783333333333)"
   id="g231"><circle
     cx="3"
     cy="3"
     r="3"
     id="circle230" /></g>
<g
   transform="translate(337.125,685.125) scale(4.9783333333333)"
   id="g232"><circle
     cx="3"
     cy="3"
     r="3"
     id="circle231" /></g>
<g
   transform="translate(453.125,685.125) scale(4.9783333333333)"
   id="g233"><circle
     cx="3"
     cy="3"
     r="3"
     id="circle232" /></g>
<g
   transform="translate(511.125,685.125) scale(4.9783333333333)"
   id="g234"><circle
     cx="3"
     cy="3"
     r="3"
     id="circle233" /></g>
<g
   transform="translate(540.125,685.125) scale(4.9783333333333)"
   id="g235"><circle
     cx="3"
     cy="3"
     r="3"
     id="circle234" /></g>
<g
   transform="translate(569.125,685.125) scale(4.9783333333333)"
   id="g236"><circle
     cx="3"
     cy="3"
     r="3"
     id="circle235" /></g>
<g
   transform="translate(656.125,685.125) scale(4.9783333333333)"
   id="g237"><circle
     cx="3"
     cy="3"
     r="3"
     id="circle236" /></g>
<g
   transform="translate(685.125,685.125) scale(4.9783333333333)"
   id="g238"><circle
     cx="3"
     cy="3"
     r="3"
     id="circle237" /></g>
<g
   transform="translate(714.125,685.125) scale(4.9783333333333)"
   id="g239"><circle
     cx="3"
     cy="3"
     r="3"
     id="circle238" /></g>
<g
   transform="translate(743.125,685.125) scale(4.9783333333333)"
   id="g240"><circle
     cx="3"
     cy="3"
     r="3"
     id="circle239" /></g>
<g
   transform="translate(772.125,685.125) scale(4.9783333333333)"
   id="g241"><circle
     cx="3"
     cy="3"
     r="3"
     id="circle240" /></g>
<g
   transform="translate(801.125,685.125) scale(4.9783333333333)"
   id="g242"><circle
     cx="3"
     cy="3"
     r="3"
     id="circle241" /></g>
<g
   transform="translate(859.125,685.125) scale(4.9783333333333)"
   id="g243"><circle
     cx="3"
     cy="3"
     r="3"
     id="circle242" /></g>
<g
   transform="translate(337.125,714.125) scale(4.9783333333333)"
   id="g244"><circle
     cx="3"
     cy="3"
     r="3"
     id="circle243" /></g>
<g
   transform="translate(366.125,714.125) scale(4.9783333333333)"
   id="g245"><circle
     cx="3"
     cy="3"
     r="3"
     id="circle244" /></g>
<g
   transform="translate(395.125,714.125) scale(4.9783333333333)"
   id="g246"><circle
     cx="3"
     cy="3"
     r="3"
     id="circle245" /></g>
<g
   transform="translate(424.125,714.125) scale(4.9783333333333)"
   id="g247"><circle
     cx="3"
     cy="3"
     r="3"
     id="circle246" /></g>
<g
   transform="translate(453.125,714.125) scale(4.9783333333333)"
   id="g248"><circle
     cx="3"
     cy="3"
     r="3"
     id="circle247" /></g>
<g
   transform="translate(482.125,714.125) scale(4.9783333333333)"
   id="g249"><circle
     cx="3"
     cy="3"
     r="3"
     id="circle248" /></g>
<g
   transform="translate(511.125,714.125) scale(4.9783333333333)"
   id="g250"><circle
     cx="3"
     cy="3"
     r="3"
     id="circle249" /></g>
<g
   transform="translate(540.125,714.125) scale(4.9783333333333)"
   id="g251"><circle
     cx="3"
     cy="3"
     r="3"
     id="circle250" /></g>
<g
   transform="translate(598.125,714.125) scale(4.9783333333333)"
   id="g252"><circle
     cx="3"
     cy="3"
     r="3"
     id="circle251" /></g>
<g
   transform="translate(627.125,714.125) scale(4.9783333333333)"
   id="g253"><circle
     cx="3"
     cy="3"
     r="3"
     id="circle252" /></g>
<g
   transform="translate(656.125,714.125) scale(4.9783333333333)"
   id="g254"><circle
     cx="3"
     cy="3"
     r="3"
     id="circle253" /></g>
<g
   transform="translate(685.125,714.125) scale(4.9783333333333)"
   id="g255"><circle
     cx="3"
     cy="3"
     r="3"
     id="circle254" /></g>
<g
   transform="translate(801.125,714.125) scale(4.9783333333333)"
   id="g256"><circle
     cx="3"
     cy="3"
     r="3"
     id="circle255" /></g>
<g
   transform="translate(830.125,714.125) scale(4.9783333333333)"
   id="g257"><circle
     cx="3"
     cy="3"
     r="3"
     id="circle256" /></g>
<g
   transform="translate(888.125,714.125) scale(4.9783333333333)"
   id="g258"><circle
     cx="3"
     cy="3"
     r="3"
     id="circle257" /></g>
<g
   transform="translate(917.125,714.125) scale(4.9783333333333)"
   id="g259"><circle
     cx="3"
     cy="3"
     r="3"
     id="circle258" /></g>
<g
   transform="translate(424.125,743.125) scale(4.9783333333333)"
   id="g260"><circle
     cx="3"
     cy="3"
     r="3"
     id="circle259" /></g>
<g
   transform="translate(482.125,743.125) scale(4.9783333333333)"
   id="g261"><circle
     cx="3"
     cy="3"
     r="3"
     id="circle260" /></g>
<g
   transform="translate(511.125,743.125) scale(4.9783333333333)"
   id="g262"><circle
     cx="3"
     cy="3"
     r="3"
     id="circle261" /></g>
<g
   transform="translate(540.125,743.125) scale(4.9783333333333)"
   id="g263"><circle
     cx="3"
     cy="3"
     r="3"
     id="circle262" /></g>
<g
   transform="translate(627.125,743.125) scale(4.9783333333333)"
   id="g264"><circle
     cx="3"
     cy="3"
     r="3"
     id="circle263" /></g>
<g
   transform="translate(656.125,743.125) scale(4.9783333333333)"
   id="g265"><circle
     cx="3"
     cy="3"
     r="3"
     id="circle264" /></g>
<g
   transform="translate(685.125,743.125) scale(4.9783333333333)"
   id="g266"><circle
     cx="3"
     cy="3"
     r="3"
     id="circle265" /></g>
<g
   transform="translate(743.125,743.125) scale(4.9783333333333)"
   id="g267"><circle
     cx="3"
     cy="3"
     r="3"
     id="circle266" /></g>
<g
   transform="translate(801.125,743.125) scale(4.9783333333333)"
   id="g268"><circle
     cx="3"
     cy="3"
     r="3"
     id="circle267" /></g>
<g
   transform="translate(366.125,772.125) scale(4.9783333333333)"
   id="g269"><circle
     cx="3"
     cy="3"
     r="3"
     id="circle268" /></g>
<g
   transform="translate(511.125,772.125) scale(4.9783333333333)"
   id="g270"><circle
     cx="3"
     cy="3"
     r="3"
     id="circle269" /></g>
<g
   transform="translate(540.125,772.125) scale(4.9783333333333)"
   id="g271"><circle
     cx="3"
     cy="3"
     r="3"
     id="circle270" /></g>
<g
   transform="translate(656.125,772.125) scale(4.9783333333333)"
   id="g272"><circle
     cx="3"
     cy="3"
     r="3"
     id="circle271" /></g>
<g
   transform="translate(685.125,772.125) scale(4.9783333333333)"
   id="g273"><circle
     cx="3"
     cy="3"
     r="3"
     id="circle272" /></g>
<g
   transform="translate(801.125,772.125) scale(4.9783333333333)"
   id="g274"><circle
     cx="3"
     cy="3"
     r="3"
     id="circle273" /></g>
<g
   transform="translate(830.125,772.125) scale(4.9783333333333)"
   id="g275"><circle
     cx="3"
     cy="3"
     r="3"
     id="circle274" /></g>
<g
   transform="translate(888.125,772.125) scale(4.9783333333333)"
   id="g276"><circle
     cx="3"
     cy="3"
     r="3"
     id="circle275" /></g>
<g
   transform="translate(337.125,801.125) scale(4.9783333333333)"
   id="g277"><circle
     cx="3"
     cy="3"
     r="3"
     id="circle276" /></g>
<g
   transform="translate(366.125,801.125) scale(4.9783333333333)"
   id="g278"><circle
     cx="3"
     cy="3"
     r="3"
     id="circle277" /></g>
<g
   transform="translate(395.125,801.125) scale(4.9783333333333)"
   id="g279"><circle
     cx="3"
     cy="3"
     r="3"
     id="circle278" /></g>
<g
   transform="translate(453.125,801.125) scale(4.9783333333333)"
   id="g280"><circle
     cx="3"
     cy="3"
     r="3"
     id="circle279" /></g>
<g
   transform="translate(511.125,801.125) scale(4.9783333333333)"
   id="g281"><circle
     cx="3"
     cy="3"
     r="3"
     id="circle280" /></g>
<g
   transform="translate(540.125,801.125) scale(4.9783333333333)"
   id="g282"><circle
     cx="3"
     cy="3"
     r="3"
     id="circle281" /></g>
<g
   transform="translate(598.125,801.125) scale(4.9783333333333)"
   id="g283"><circle
     cx="3"
     cy="3"
     r="3"
     id="circle282" /></g>
<g
   transform="translate(685.125,801.125) scale(4.9783333333333)"
   id="g284"><circle
     cx="3"
     cy="3"
     r="3"
     id="circle283" /></g>
<g
   transform="translate(714.125,801.125) scale(4.9783333333333)"
   id="g285"><circle
     cx="3"
     cy="3"
     r="3"
     id="circle284" /></g>
<g
   transform="translate(743.125,801.125) scale(4.9783333333333)"
   id="g286"><circle
     cx="3"
     cy="3"
     r="3"
     id="circle285" /></g>
<g
   transform="translate(772.125,801.125) scale(4.9783333333333)"
   id="g287"><circle
     cx="3"
     cy="3"
     r="3"
     id="circle286" /></g>
<g
   transform="translate(801.125,801.125) scale(4.9783333333333)"
   id="g288"><circle
     cx="3"
     cy="3"
     r="3"
     id="circle287" /></g>
<g
   transform="translate(830.125,801.125) scale(4.9783333333333)"
   id="g289"><circle
     cx="3"
     cy="3"
     r="3"
     id="circle288" /></g>
<g
   transform="translate(859.125,801.125) scale(4.9783333333333)"
   id="g290"><circle
     cx="3"
     cy="3"
     r="3"
     id="circle289" /></g>
<g
   transform="translate(917.125,801.125) scale(4.9783333333333)"
   id="g291"><circle
     cx="3"
     cy="3"
     r="3"
     id="circle290" /></g>
<g
   transform="translate(337.125,830.125) scale(4.9783333333333)"
   id="g292"><circle
     cx="3"
     cy="3"
     r="3"
     id="circle291" /></g>
<g
   transform="translate(366.125,830.125) scale(4.9783333333333)"
   id="g293"><circle
     cx="3"
     cy="3"
     r="3"
     id="circle292" /></g>
<g
   transform="translate(569.125,830.125) scale(4.9783333333333)"
   id="g294"><circle
     cx="3"
     cy="3"
     r="3"
     id="circle293" /></g>
<g
   transform="translate(656.125,830.125) scale(4.9783333333333)"
   id="g295"><circle
     cx="3"
     cy="3"
     r="3"
     id="circle294" /></g>
<g
   transform="translate(685.125,830.125) scale(4.9783333333333)"
   id="g296"><circle
     cx="3"
     cy="3"
     r="3"
     id="circle295" /></g>
<g
   transform="translate(714.125,830.125) scale(4.9783333333333)"
   id="g297"><circle
     cx="3"
     cy="3"
     r="3"
     id="circle296" /></g>
<g
   transform="translate(772.125,830.125) scale(4.9783333333333)"
   id="g298"><circle
     cx="3"
     cy="3"
     r="3"
     id="circle297" /></g>
<g
   transform="translate(830.125,830.125) scale(4.9783333333333)"
   id="g299"><circle
     cx="3"
     cy="3"
     r="3"
     id="circle298" /></g>
<g
   transform="translate(859.125,830.125) scale(4.9783333333333)"
   id="g300"><circle
     cx="3"
     cy="3"
     r="3"
     id="circle299" /></g>
<g
   transform="translate(337.125,859.125) scale(4.9783333333333)"
   id="g301"><circle
     cx="3"
     cy="3"
     r="3"
     id="circle300" /></g>
<g
   transform="translate(366.125,859.125) scale(4.9783333333333)"
   id="g302"><circle
     cx="3"
     cy="3"
     r="3"
     id="circle301" /></g>
<g
   transform="translate(511.125,859.125) scale(4.9783333333333)"
   id="g303"><circle
     cx="3"
     cy="3"
     r="3"
     id="circle302" /></g>
<g
   transform="translate(569.125,859.125) scale(4.9783333333333)"
   id="g304"><circle
     cx="3"
     cy="3"
     r="3"
     id="circle303" /></g>
<g
   transform="translate(627.125,859.125) scale(4.9783333333333)"
   id="g305"><circle
     cx="3"
     cy="3"
     r="3"
     id="circle304" /></g>
<g
   transform="translate(656.125,859.125) scale(4.9783333333333)"
   id="g306"><circle
     cx="3"
     cy="3"
     r="3"
     id="circle305" /></g>
<g
   transform="translate(685.125,859.125) scale(4.9783333333333)"
   id="g307"><circle
     cx="3"
     cy="3"
     r="3"
     id="circle306" /></g>
<g
   transform="translate(714.125,859.125) scale(4.9783333333333)"
   id="g308"><circle
     cx="3"
     cy="3"
     r="3"
     id="circle307" /></g>
<g
   transform="translate(743.125,859.125) scale(4.9783333333333)"
   id="g309"><circle
     cx="3"
     cy="3"
     r="3"
     id="circle308" /></g>
<g
   transform="translate(772.125,859.125) scale(4.9783333333333)"
   id="g310"><circle
     cx="3"
     cy="3"
     r="3"
     id="circle309" /></g>
<g
   transform="translate(801.125,859.125) scale(4.9783333333333)"
   id="g311"><circle
     cx="3"
     cy="3"
     r="3"
     id="circle310" /></g>
<g
   transform="translate(830.125,859.125) scale(4.9783333333333)"
   id="g312"><circle
     cx="3"
     cy="3"
     r="3"
     id="circle311" /></g>
<g
   transform="translate(859.125,859.125) scale(4.9783333333333)"
   id="g313"><circle
     cx="3"
     cy="3"
     r="3"
     id="circle312" /></g>
<g
   transform="translate(888.125,859.125) scale(4.9783333333333)"
   id="g314"><circle
     cx="3"
     cy="3"
     r="3"
     id="circle313" /></g>
<g
   transform="translate(395.125,888.125) scale(4.9783333333333)"
   id="g315"><circle
     cx="3"
     cy="3"
     r="3"
     id="circle314" /></g>
<g
   transform="translate(424.125,888.125) scale(4.9783333333333)"
   id="g316"><circle
     cx="3"
     cy="3"
     r="3"
     id="circle315" /></g>
<g
   transform="translate(482.125,888.125) scale(4.9783333333333)"
   id="g317"><circle
     cx="3"
     cy="3"
     r="3"
     id="circle316" /></g>
<g
   transform="translate(511.125,888.125) scale(4.9783333333333)"
   id="g318"><circle
     cx="3"
     cy="3"
     r="3"
     id="circle317" /></g>
<g
   transform="translate(656.125,888.125) scale(4.9783333333333)"
   id="g319"><circle
     cx="3"
     cy="3"
     r="3"
     id="circle318" /></g>
<g
   transform="translate(685.125,888.125) scale(4.9783333333333)"
   id="g320"><circle
     cx="3"
     cy="3"
     r="3"
     id="circle319" /></g>
<g
   transform="translate(801.125,888.125) scale(4.9783333333333)"
   id="g321"><circle
     cx="3"
     cy="3"
     r="3"
     id="circle320" /></g>
<g
   transform="translate(830.125,888.125) scale(4.9783333333333)"
   id="g322"><circle
     cx="3"
     cy="3"
     r="3"
     id="circle321" /></g>
<g
   transform="translate(888.125,888.125) scale(4.9783333333333)"
   id="g323"><circle
     cx="3"
     cy="3"
     r="3"
     id="circle322" /></g>
<g
   transform="translate(395.125,917.125) scale(4.9783333333333)"
   id="g324"><circle
     cx="3"
     cy="3"
     r="3"
     id="circle323" /></g>
<g
   transform="translate(569.125,917.125) scale(4.9783333333333)"
   id="g325"><circle
     cx="3"
     cy="3"
     r="3"
     id="circle324" /></g>
<g
   transform="translate(598.125,917.125) scale(4.9783333333333)"
   id="g326"><circle
     cx="3"
     cy="3"
     r="3"
     id="circle325" /></g>
<g
   transform="translate(801.125,917.125) scale(4.9783333333333)"
   id="g327"><circle
     cx="3"
     cy="3"
     r="3"
     id="circle326" /></g>
<g
   transform="translate(830.125,917.125) scale(4.9783333333333)"
   id="g328"><circle
     cx="3"
     cy="3"
     r="3"
     id="circle327" /></g>
<g
   transform="translate(859.125,917.125) scale(4.9783333333333)"
   id="g329"><circle
     cx="3"
     cy="3"
     r="3"
     id="circle328" /></g>
</g><g
   id="g343"><g
   transform="translate(105.125,105.125)"
   fill="#000000"
   id="g332"><g
     transform="scale(14.5)"
     id="g331"><path
       d="M0,0v14h14V0H0z M12,12H2V2h10V12z"
       id="path330" /></g></g>
<g
   transform="translate(743.125,105.125)"
   fill="#000000"
   id="g334"><g
     transform="scale(14.5)"
     id="g333"><path
       d="M0,0v14h14V0H0z M12,12H2V2h10V12z"
       id="path332" /></g></g>
<g
   transform="translate(105.125,743.125)"
   fill="#000000"
   id="g336"><g
     transform="scale(14.5)"
     id="g335"><path
       d="M0,0v14h14V0H0z M12,12H2V2h10V12z"
       id="path334" /></g></g>
<g
   transform="translate(163.125,163.125)"
   fill="#000000"
   id="g338"><g
     transform="scale(14.5)"
     id="g337"><rect
       width="6"
       height="6"
       id="rect336" /></g></g>
<g
   transform="translate(801.125,163.125)"
   fill="#000000"
   id="g340"><g
     transform="scale(14.5)"
     id="g339"><rect
       width="6"
       height="6"
       id="rect338" /></g></g>
<g
   transform="translate(163.125,801.125)"
   fill="#000000"
   id="g342"><g
     transform="scale(14.5)"
     id="g341"><rect
       width="6"
       height="6"
       id="rect340" /></g></g></g>
<path
   d="m 129.82172,120.86269 8.87429,-0.77589 q 0.63042,5.33428 2.90961,8.77731 2.32768,3.39454 7.17702,5.52825 4.84934,2.08522 10.91102,2.08522 5.38277,0 9.50471,-1.60029 4.12194,-1.60028 6.11017,-4.36441 2.03673,-2.81261 2.03673,-6.11017 0,-3.34604 -1.93974,-5.81921 -1.93974,-2.52165 -6.40113,-4.21892 -2.86111,-1.11535 -12.65678,-3.44304 -9.79568,-2.37617 -13.72364,-4.46139 -5.09181,-2.66714 -7.61347,-6.595106 -2.47316,-3.97646 -2.47316,-8.874296 0,-5.382769 3.05508,-10.038137 3.05509,-4.703862 8.92279,-7.128533 5.8677,-2.424671 13.04473,-2.424671 7.90443,0 13.91761,2.570151 6.06168,2.521658 9.31074,7.467987 3.24906,4.946328 3.49152,11.201979 l -9.01977,0.678908 q -0.7274,-6.740585 -4.94633,-10.183618 -4.17043,-3.443032 -12.36582,-3.443032 -8.53484,0 -12.46281,3.152072 -3.87947,3.103579 -3.87947,7.51648 0,3.83098 2.76412,6.304144 2.71563,2.473165 14.16008,5.091812 11.49294,2.57015 15.76036,4.50989 6.20716,2.86111 9.16526,7.27401 2.9581,4.36441 2.9581,10.08663 0,5.67373 -3.24906,10.71704 -3.24906,4.99483 -9.35923,7.80745 -6.06168,2.76412 -13.67515,2.76412 -9.65019,0 -16.1968,-2.81262 -6.49812,-2.81262 -10.23211,-8.43785 -3.6855,-5.67373 -3.87947,-12.80227 z m 68.13325,22.8404 V 72.611742 h 8.72882 V 143.70309 Z M 220.26194,82.64988 V 72.611742 h 8.72882 V 82.64988 Z m 0,61.05321 V 92.203084 h 8.72882 v 51.500006 z m 55.42798,0 v -6.49811 q -4.89784,7.66196 -14.40255,7.66196 -6.15866,0 -11.34746,-3.39454 -5.1403,-3.39454 -8.00141,-9.45622 -2.81262,-6.11017 -2.81262,-14.0146 0,-7.71045 2.57015,-13.9661 2.57015,-6.304147 7.71045,-9.650192 5.1403,-3.346046 11.49294,-3.346046 4.65537,0 8.29238,1.98823 3.637,1.939737 5.91619,5.091809 V 72.611742 h 8.68033 v 71.091348 z m -27.59276,-25.70151 q 0,9.89266 4.17043,14.7905 4.17044,4.89783 9.84417,4.89783 5.72222,0 9.69868,-4.65537 4.02496,-4.70386 4.02496,-14.30556 0,-10.57156 -4.07345,-15.51789 -4.07345,-4.946329 -10.03814,-4.946329 -5.81921,0 -9.74718,4.752359 -3.87947,4.75235 -3.87947,14.98446 z m 84.66951,9.11677 9.01978,1.11534 q -2.13371,7.90443 -7.90443,12.26884 -5.77071,4.36441 -14.742,4.36441 -11.29896,0 -17.94256,-6.93456 -6.59511,-6.98305 -6.59511,-19.54285 0,-12.99624 6.6921,-20.173262 6.69209,-7.177026 17.36064,-7.177026 10.3291,0 16.87571,7.031545 6.54661,7.031543 6.54661,19.785313 0,0.7759 -0.0485,2.32769 h -38.40679 q 0.48493,8.48634 4.80085,12.99623 4.31591,4.50989 10.76554,4.50989 4.80085,0 8.19538,-2.52166 3.39454,-2.52166 5.38277,-8.0499 z m -28.65961,-14.11159 h 28.7566 q -0.58192,-6.49812 -3.29755,-9.74718 -4.17044,-5.043312 -10.81403,-5.043312 -6.01319,0 -10.13513,4.024952 -4.07345,4.02496 -4.50989,10.76554 z m 45.14738,15.32392 8.63183,-1.35782 q 0.7274,5.1888 4.02495,7.95293 3.34605,2.76412 9.31074,2.76412 6.01318,0 8.92279,-2.42467 2.9096,-2.47316 2.9096,-5.77072 0,-2.9581 -2.57015,-4.65537 -1.79425,-1.16384 -8.92279,-2.95809 -9.60169,-2.42467 -13.33569,-4.17044 -3.6855,-1.79425 -5.62523,-4.89783 -1.89125,-3.15208 -1.89125,-6.93456 0,-3.44303 1.55179,-6.35264 1.60029,-2.958099 4.31592,-4.897835 2.03672,-1.503296 5.52825,-2.521658 3.54002,-1.066855 7.56497,-1.066855 6.06168,0 10.62006,1.745763 4.60687,1.745763 6.78908,4.752355 2.1822,2.9581 3.00659,7.95292 l -8.53484,1.16384 q -0.58192,-3.97646 -3.39454,-6.20716 -2.76413,-2.230692 -7.85593,-2.230692 -6.01319,0 -8.58334,1.988232 -2.57015,1.98823 -2.57015,4.65537 0,1.69727 1.06685,3.05508 1.06686,1.40631 3.34605,2.32769 1.30932,0.48493 7.71045,2.23069 9.26225,2.47317 12.89925,4.07345 3.6855,1.55179 5.77072,4.55838 2.08522,3.00659 2.08522,7.46799 0,4.36441 -2.57015,8.24388 -2.52166,3.83098 -7.32251,5.96469 -4.80085,2.08522 -10.86253,2.08522 -10.03813,0 -15.32392,-4.17044 -5.23729,-4.17043 -6.69209,-12.36582 z m 114.34748,9.01978 q -4.84934,4.12194 -9.35923,5.81921 -4.46139,1.69727 -9.60169,1.69727 -8.48635,0 -13.04473,-4.12194 -4.55839,-4.17044 -4.55839,-10.62006 0,-3.78249 1.69727,-6.88607 1.74577,-3.15207 4.50989,-5.04331 2.81262,-1.89125 6.30415,-2.86112 2.57015,-0.6789 7.75894,-1.30932 10.57157,-1.26083 15.56639,-3.00659 0.0485,-1.79426 0.0485,-2.27919 0,-5.33428 -2.47316,-7.51648 -3.34605,-2.958099 -9.94115,-2.958099 -6.15867,0 -9.11676,2.182199 -2.90961,2.13372 -4.31592,7.61347 l -8.53484,-1.16384 q 1.16384,-5.47976 3.83098,-8.825803 2.66714,-3.394539 7.71045,-5.188795 5.04332,-1.84275 11.68692,-1.84275 6.5951,0 10.71704,1.551789 4.12194,1.551789 6.06168,3.927967 1.93974,2.327684 2.71563,5.916202 0.43644,2.23069 0.43644,8.0499 v 11.63842 q 0,12.17185 0.53343,15.42091 0.58192,3.20057 2.2307,6.15866 h -9.11676 q -1.35782,-2.71563 -1.74577,-6.35263 z m -0.7274,-19.49436 q -4.75235,1.93974 -14.25706,3.29755 -5.38277,0.7759 -7.61347,1.74577 -2.2307,0.96987 -3.44303,2.86111 -1.21234,1.84275 -1.21234,4.12194 0,3.49153 2.61865,5.81921 2.66713,2.32768 7.75894,2.32768 5.04332,0 8.97128,-2.1822 3.92797,-2.2307 5.77072,-6.06168 1.40631,-2.9581 1.40631,-8.72881 z m 36.66103,25.84699 -19.59134,-51.500006 h 9.21375 l 11.0565,30.841816 q 1.79425,4.99482 3.29755,10.37759 1.16384,-4.07345 3.24906,-9.79567 l 11.44445,-31.423736 h 8.97128 l -19.49436,51.500006 z m 68.95764,-6.35263 q -4.84934,4.12194 -9.35923,5.81921 -4.4614,1.69727 -9.6017,1.69727 -8.48635,0 -13.04473,-4.12194 -4.55838,-4.17044 -4.55838,-10.62006 0,-3.78249 1.69727,-6.88607 1.74576,-3.15207 4.50989,-5.04331 2.81262,-1.89125 6.30414,-2.86112 2.57015,-0.6789 7.75895,-1.30932 10.57156,-1.26083 15.56639,-3.00659 0.0485,-1.79426 0.0485,-2.27919 0,-5.33428 -2.47316,-7.51648 -3.34605,-2.958099 -9.94116,-2.958099 -6.15866,0 -9.11676,2.182199 -2.9096,2.13372 -4.31591,7.61347 l -8.53484,-1.16384 q 1.16384,-5.47976 3.83098,-8.825803 2.66713,-3.394539 7.71045,-5.188795 5.04332,-1.84275 11.68691,-1.84275 6.59511,0 10.71705,1.551789 4.12194,1.551789 6.06168,3.927967 1.93973,2.327684 2.71563,5.916202 0.43644,2.23069 0.43644,8.0499 v 11.63842 q 0,12.17185 0.53343,15.42091 0.58192,3.20057 2.23069,6.15866 h -9.11676 q -1.35781,-2.71563 -1.74576,-6.35263 z m -0.7274,-19.49436 q -4.75236,1.93974 -14.25707,3.29755 -5.38277,0.7759 -7.61347,1.74577 -2.23069,0.96987 -3.44303,2.86111 -1.21233,1.84275 -1.21233,4.12194 0,3.49153 2.61864,5.81921 2.66714,2.32768 7.75895,2.32768 5.04331,0 8.97128,-2.1822 3.92797,-2.2307 5.77072,-6.06168 1.40631,-2.9581 1.40631,-8.72881 z M 590.16975,82.64988 V 72.611742 h 8.72882 V 82.64988 Z m 0,61.05321 V 92.203084 h 8.72882 v 51.500006 z m 21.82202,0 V 72.611742 h 8.72881 v 71.091348 z m 55.86442,-6.35263 q -4.84934,4.12194 -9.35923,5.81921 -4.46139,1.69727 -9.60169,1.69727 -8.48635,0 -13.04473,-4.12194 -4.55838,-4.17044 -4.55838,-10.62006 0,-3.78249 1.69727,-6.88607 1.74576,-3.15207 4.50988,-5.04331 2.81262,-1.89125 6.30415,-2.86112 2.57015,-0.6789 7.75895,-1.30932 10.57156,-1.26083 15.56638,-3.00659 0.0485,-1.79426 0.0485,-2.27919 0,-5.33428 -2.47317,-7.51648 -3.34604,-2.958099 -9.94115,-2.958099 -6.15866,0 -9.11676,2.182199 -2.90961,2.13372 -4.31592,7.61347 l -8.53484,-1.16384 q 1.16384,-5.47976 3.83098,-8.825803 2.66714,-3.394539 7.71046,-5.188795 5.04331,-1.84275 11.68691,-1.84275 6.59511,0 10.71705,1.551789 4.12194,1.551789 6.06167,3.927967 1.93974,2.327684 2.71563,5.916202 0.43645,2.23069 0.43645,8.0499 v 11.63842 q 0,12.17185 0.53342,15.42091 0.58192,3.20057 2.2307,6.15866 h -9.11676 q -1.35782,-2.71563 -1.74577,-6.35263 z m -0.7274,-19.49436 q -4.75235,1.93974 -14.25706,3.29755 -5.38277,0.7759 -7.61347,1.74577 -2.2307,0.96987 -3.44303,2.86111 -1.21234,1.84275 -1.21234,4.12194 0,3.49153 2.61865,5.81921 2.66714,2.32768 7.75894,2.32768 5.04332,0 8.97129,-2.1822 3.92796,-2.2307 5.77071,-6.06168 1.40631,-2.9581 1.40631,-8.72881 z m 30.40538,25.84699 h -8.0984 V 72.611742 h 8.72882 v 25.362059 q 5.52825,-6.934559 14.11158,-6.934559 4.75236,0 8.97128,1.939736 4.26742,1.891244 6.98306,5.38277 2.76412,3.443032 4.31591,8.340872 1.55179,4.89783 1.55179,10.47457 0,13.23871 -6.54661,20.46423 -6.54661,7.22552 -15.71187,7.22552 -9.11676,0 -14.30556,-7.61347 z m -0.097,-26.13795 q 0,9.26224 2.52166,13.38419 4.12194,6.74058 11.15349,6.74058 5.72222,0 9.89266,-4.94633 4.17043,-4.99482 4.17043,-14.83898 0,-10.08664 -4.02495,-14.88748 -3.97646,-4.800852 -9.65019,-4.800852 -5.72223,0 -9.89266,4.994822 -4.17044,4.94633 -4.17044,14.35405 z m 47.08712,26.13795 V 72.611742 h 8.72881 v 71.091348 z m 57.5132,-16.58474 9.01978,1.11534 q -2.13371,7.90443 -7.90443,12.26884 -5.77072,4.36441 -14.742,4.36441 -11.29896,0 -17.94256,-6.93456 -6.59511,-6.98305 -6.59511,-19.54285 0,-12.99624 6.69209,-20.173262 6.6921,-7.177026 17.36065,-7.177026 10.3291,0 16.87571,7.031545 6.54661,7.031543 6.54661,19.785313 0,0.7759 -0.0485,2.32769 h -38.40679 q 0.48493,8.48634 4.80085,12.99623 4.31591,4.50989 10.76554,4.50989 4.80084,0 8.19538,-2.52166 3.39454,-2.52166 5.38277,-8.0499 z m -28.65961,-14.11159 h 28.7566 q -0.58192,-6.49812 -3.29755,-9.74718 -4.17044,-5.043312 -10.81404,-5.043312 -6.01318,0 -10.13512,4.024952 -4.07345,4.02496 -4.50989,10.76554 z m 109.83756,24.3437 q -4.84934,4.12194 -9.35923,5.81921 -4.4614,1.69727 -9.6017,1.69727 -8.48635,0 -13.04473,-4.12194 -4.55838,-4.17044 -4.55838,-10.62006 0,-3.78249 1.69727,-6.88607 1.74576,-3.15207 4.50989,-5.04331 2.81262,-1.89125 6.30414,-2.86112 2.57015,-0.6789 7.75895,-1.30932 10.57156,-1.26083 15.56639,-3.00659 0.0485,-1.79426 0.0485,-2.27919 0,-5.33428 -2.47316,-7.51648 -3.34605,-2.958099 -9.94116,-2.958099 -6.15866,0 -9.11676,2.182199 -2.9096,2.13372 -4.31591,7.61347 l -8.53484,-1.16384 q 1.16384,-5.47976 3.83098,-8.825803 2.66713,-3.394539 7.71045,-5.188795 5.04331,-1.84275 11.68691,-1.84275 6.59511,0 10.71705,1.551789 4.12194,1.551789 6.06168,3.927967 1.93973,2.327684 2.71563,5.916202 0.43644,2.23069 0.43644,8.0499 v 11.63842 q 0,12.17185 0.53343,15.42091 0.58192,3.20057 2.23069,6.15866 h -9.11676 q -1.35782,-2.71563 -1.74576,-6.35263 z m -0.7274,-19.49436 q -4.75236,1.93974 -14.25707,3.29755 -5.38277,0.7759 -7.61347,1.74577 -2.23069,0.96987 -3.44303,2.86111 -1.21233,1.84275 -1.21233,4.12194 0,3.49153 2.61864,5.81921 2.66714,2.32768 7.75895,2.32768 5.04331,0 8.97128,-2.1822 3.92797,-2.2307 5.77072,-6.06168 1.40631,-2.9581 1.40631,-8.72881 z m 41.41338,18.03955 1.26083,7.71046 q -3.6855,0.77589 -6.59511,0.77589 -4.75235,0 -7.371,-1.50329 -2.61864,-1.5033 -3.6855,-3.92797 -1.06685,-2.47316 -1.06685,-10.3291 V 98.992162 h -6.40113 v -6.789078 h 6.40113 V 79.449315 l 8.68032,-5.23729 v 17.991059 h 8.77731 v 6.789078 h -8.77731 v 30.114418 q 0,3.73399 0.43644,4.80084 0.48494,1.06686 1.5033,1.69727 1.06685,0.63042 3.00659,0.63042 1.4548,0 3.83098,-0.33946 z"
   id="text343"
   style="font-size:99.3145px;font-family:Arial, Helvetica, sans-serif;text-anchor:middle;fill:#ffffff"
   transform="translate(0,1007.4479166667)"
   aria-label="Slides available at" /></svg>
